<svg width="1200" height="800" viewBox="0 0 1200 800" fill="none" xmlns="http://www.w3.org/2000/svg">
  <rect width="1200" height="800" fill="#0B1220"/>
  <rect x="90" y="86" width="1020" height="628" rx="20" fill="#0F172A" stroke="#24324A" stroke-width="4"/>
  <rect x="130" y="140" width="360" height="210" rx="14" fill="#09101D" stroke="#24324A"/>
  <rect x="510" y="140" width="560" height="210" rx="14" fill="#09101D" stroke="#24324A"/>
  <rect x="130" y="372" width="430" height="290" rx="14" fill="#09101D" stroke="#24324A"/>
  <rect x="580" y="372" width="490" height="290" rx="14" fill="#09101D" stroke="#24324A"/>
  <path d="M170 300L220 260L285 278L340 232L400 248L450 190" stroke="#38BDF8" stroke-width="6" stroke-linecap="round"/>
  <rect x="550" y="200" width="38" height="120" rx="8" fill="#22C55E" fill-opacity="0.7"/>
  <rect x="608" y="168" width="38" height="152" rx="8" fill="#22C55E" fill-opacity="0.85"/>
  <rect x="666" y="228" width="38" height="92" rx="8" fill="#22C55E" fill-opacity="0.65"/>
  <rect x="724" y="184" width="38" height="136" rx="8" fill="#22C55E"/>
  <rect x="782" y="252" width="38" height="68" rx="8" fill="#22C55E" fill-opacity="0.6"/>
  <circle cx="250" cy="515" r="94" stroke="#38BDF8" stroke-width="30"/>
  <circle cx="250" cy="515" r="94" stroke="#22C55E" stroke-width="30" stroke-dasharray="220 420" stroke-linecap="round" transform="rotate(-90 250 515)"/>
  <path d="M640 610L710 540L785 565L860 498L940 522L1020 460" stroke="#38BDF8" stroke-width="6" stroke-linecap="round"/>
</svg>

