<svg width="1200" height="800" viewBox="0 0 1200 800" fill="none" xmlns="http://www.w3.org/2000/svg">
  <rect width="1200" height="800" fill="#0B1220"/>
  <rect x="80" y="90" width="1040" height="620" rx="20" fill="#0F172A" stroke="#24324A" stroke-width="4"/>
  <rect x="80" y="90" width="1040" height="56" rx="20" fill="#111C33"/>
  <circle cx="124" cy="118" r="8" fill="#22C55E"/>
  <circle cx="152" cy="118" r="8" fill="#38BDF8"/>
  <circle cx="180" cy="118" r="8" fill="#64748B"/>
  <rect x="120" y="190" width="360" height="18" rx="9" fill="#38BDF8" fill-opacity="0.7"/>
  <rect x="120" y="224" width="520" height="14" rx="7" fill="#94A3B8" fill-opacity="0.65"/>
  <rect x="120" y="250" width="460" height="14" rx="7" fill="#94A3B8" fill-opacity="0.55"/>
  <rect x="120" y="292" width="280" height="150" rx="12" fill="#111C33" stroke="#24324A"/>
  <rect x="420" y="292" width="280" height="150" rx="12" fill="#111C33" stroke="#24324A"/>
  <rect x="720" y="292" width="280" height="150" rx="12" fill="#111C33" stroke="#24324A"/>
  <rect x="120" y="472" width="880" height="190" rx="14" fill="#09101D" stroke="#24324A"/>
  <path d="M150 608L280 548L360 574L500 506L600 530L730 468L860 492L970 432" stroke="#22C55E" stroke-width="6" stroke-linecap="round" stroke-linejoin="round"/>
</svg>

