<svg width="1200" height="800" viewBox="0 0 1200 800" fill="none" xmlns="http://www.w3.org/2000/svg">
  <rect width="1200" height="800" fill="#0B1220"/>
  <rect x="70" y="70" width="1060" height="660" rx="20" fill="#0F172A" stroke="#24324A" stroke-width="4"/>
  <rect x="120" y="130" width="280" height="550" rx="16" fill="#111C33" stroke="#24324A"/>
  <rect x="460" y="130" width="280" height="550" rx="16" fill="#111C33" stroke="#24324A"/>
  <rect x="800" y="130" width="280" height="550" rx="16" fill="#111C33" stroke="#24324A"/>
  <rect x="145" y="170" width="110" height="12" rx="6" fill="#38BDF8"/>
  <rect x="485" y="170" width="130" height="12" rx="6" fill="#38BDF8"/>
  <rect x="825" y="170" width="170" height="12" rx="6" fill="#38BDF8"/>
  <rect x="145" y="212" width="230" height="94" rx="12" fill="#09101D" stroke="#334155"/>
  <rect x="145" y="328" width="230" height="94" rx="12" fill="#09101D" stroke="#334155"/>
  <rect x="145" y="444" width="230" height="94" rx="12" fill="#09101D" stroke="#334155"/>
  <rect x="485" y="212" width="230" height="120" rx="12" fill="#09101D" stroke="#334155"/>
  <rect x="485" y="356" width="230" height="120" rx="12" fill="#09101D" stroke="#334155"/>
  <rect x="825" y="212" width="230" height="94" rx="12" fill="#09101D" stroke="#22C55E"/>
  <rect x="825" y="328" width="230" height="94" rx="12" fill="#09101D" stroke="#22C55E"/>
</svg>

